<svg xmlns:xlink="http://www.w3.org/1999/xlink" version="1.1" id="Layer_1" xmlns="http://www.w3.org/2000/svg" x="0px" y="0px" width="250" viewBox="0 0 250 273" enable-background="new 0 0 250 273" class="h-8 w-8 absolute right-[-35px] top-[calc(100%-20px)]" style="color: rgb(169, 240, 185);" height="273" ><path fill="#A9F0B9" stroke="#000000" stroke-width="7px" d=" M105.809563,76.313110 C111.582687,80.689018 117.148796,84.743431 122.611450,88.932747 C124.208107,90.157227 125.510239,91.765739 127.653069,93.901649 C115.390999,97.507690 104.248070,99.412781 95.515610,106.934914 C92.588638,109.456207 90.292709,112.736679 87.273872,115.119781 C78.166870,122.308975 73.299995,132.201172 68.940804,142.515305 C68.517937,143.515839 67.231812,144.883392 66.444901,144.821823 C65.342278,144.735550 63.827854,143.689117 63.376797,142.663315 C62.011173,139.557617 61.407047,136.096725 59.896572,133.079422 C57.032597,127.358368 54.279583,121.447769 50.469662,116.375107 C47.203068,112.025864 41.481365,109.374954 38.705116,104.835594 C33.993317,97.131493 26.272181,94.561470 19.223898,90.601112 C18.284241,90.073128 17.022369,88.707695 17.167858,87.982475 C17.399338,86.828629 18.482395,85.421562 19.568638,84.938240 C23.791183,83.059486 28.562164,82.133728 32.378025,79.683647 C38.698845,75.625183 44.820694,71.071838 50.308224,65.956589 C55.064350,61.523121 59.460079,56.411255 62.852726,50.885559 C66.547348,44.868023 68.890961,38.022800 71.851814,31.551344 C72.407852,30.336021 73.096756,29.181492 73.724350,27.998909 C75.154335,28.915651 77.458214,29.540222 77.877663,30.794813 C81.626961,42.009193 85.690781,53.089767 93.016808,62.512676 C96.777832,67.350182 101.354836,71.553276 105.809563,76.313110 z"></path><path fill="#A9F0B9" stroke="#000000" stroke-width="7px" d=" M127.982071,146.228928 C128.184067,143.960297 128.137772,141.966888 128.743942,140.196915 C128.970154,139.536438 130.902069,138.872314 131.726562,139.158752 C132.678955,139.489609 133.583969,140.754135 133.963257,141.809570 C136.677368,149.361923 139.262238,156.960876 141.869415,164.551483 C147.669891,181.439178 160.149445,191.528625 176.131470,197.885452 C178.437057,198.802490 180.894684,199.253922 179.833710,202.182785 C179.373444,203.453384 177.251724,204.368301 175.699448,204.953415 C169.804855,207.175278 163.742386,208.972137 157.922058,211.364273 C153.358490,213.239883 148.964798,215.595459 144.687317,218.069260 C142.852890,219.130157 141.334045,220.892685 139.964539,222.574768 C133.817963,230.124405 127.186951,237.370789 125.554405,247.619095 C125.357178,248.857132 122.736710,249.709167 121.996246,250.218994 C117.810509,240.154007 115.802582,229.318375 109.626930,221.999405 C101.940643,212.890137 92.204437,204.428406 79.075043,202.446152 C79.075043,200.875305 79.075043,199.233017 79.075043,197.503601 C90.786194,193.806992 102.398903,189.328812 110.337471,179.806915 C117.449585,171.276306 124.701385,162.308609 126.275444,150.500320 C126.456032,149.145599 127.401924,147.892899 127.982071,146.228928 z"></path><path fill="#A9F0B9" stroke="#000000" stroke-width="7px" d=" M234.085007,132.990189 C227.333984,139.464050 219.110046,144.350571 216.479233,153.911362 C216.250320,154.743256 215.014771,155.895981 214.301224,155.858673 C213.189835,155.800568 211.598419,155.123749 211.132736,154.229065 C209.221542,150.557114 207.871780,146.585892 205.870850,142.970871 C204.985519,141.371368 203.004318,140.397598 201.584961,139.070923 C197.467499,135.222260 194.568390,130.130539 188.883881,127.868851 C185.741791,126.618698 186.527023,124.823158 189.117889,122.898735 C194.005417,119.268410 199.155304,115.685211 203.030319,111.097664 C205.972702,107.614265 207.108643,102.605003 208.980423,98.426392 C213.755463,96.595612 215.707901,99.278366 216.960419,102.990898 C218.820786,108.505119 221.679810,113.112625 226.747177,116.436638 C230.993500,119.222084 234.897018,122.595055 238.615143,126.068787 C239.407745,126.809296 239.304398,129.457825 238.596725,130.593613 C237.859680,131.776505 235.891983,132.192596 234.085007,132.990189 z"></path></svg>